<svg xmlns="http://www.w3.org/2000/svg" viewBox="0 0 370 475"><path d="M272.1 145c-11.8-0.2-21.5 9.7-21.5 21.5v34.8c0 7.7 6.3 14 14.1 14h14.1c7.7 0 14-6.3 14-14v-35.2c0-11.5-9.3-20.9-20.7-21.1Z" fill="#f9bc35"/><path d="M278.8 215.3c7.7 0 14-6.3 14-14v-35.2c0-11.6-9.4-21.1-21.1-21.1v70.3h7.1Z" fill="#f39e31"/><path d="M215.5 140.3h-117.2c-11.7 0-21.1 9.5-21.1 21.1v145.3c0 11.7 9.4 21.1 21.1 21.1h117.2c11.6 0 21.1-9.4 21.1-21.1v-145.3c0-11.6-9.5-21.1-21.1-21.1Z" fill="#e6eeff"/><path d="M215.5 140.3h-58.6v187.5h58.6c11.6 0 21.1-9.4 21.1-21.1v-145.3c0-11.6-9.5-21.1-21.1-21.1Z" fill="#dae2f2"/><path d="M199 168.4h-84.3c-3.9 0-7-3.1-7-7v-14.1c0-11.6 9.4-21.1 21.1-21.1h8.2c2.9-8.1 10.7-14 19.9-14c9.1 0 16.9 5.9 19.9 14h8.2c11.6 0 21.1 9.5 21.1 21.1v14.1c0 3.9-3.2 7-7.1 7Z" fill="#7f838c"/><g transform="translate(128.8,241.1) scale(.421139,.421139) translate(-122.4,-306.1)"><path d="M105.7 289.4c-4.2 0-8.5-1.6-11.8-4.9l-33.4-33.4c-6.5-6.5-6.5-17.1 0-23.6c6.6-6.5 17.1-6.5 23.7 0l21.5 21.6l55-55c6.5-6.5 17.1-6.5 23.6 0c6.5 6.5 6.5 17.1 0 23.6l-66.8 66.8c-3.2 3.3-7.5 4.9-11.8 4.9Z" fill="#54ccff"/><path d="M105.7 423c-4.2 0-8.5-1.7-11.8-4.9l-33.4-33.4c-6.5-6.5-6.5-17.1 0-23.6c6.6-6.6 17.1-6.6 23.7 0l21.5 21.6l55-55c6.5-6.5 17.1-6.5 23.6 0c6.5 6.5 6.5 17.1 0 23.6l-66.8 66.8c-3.2 3.2-7.5 4.9-11.8 4.9Z" fill="#54ccff"/></g><g transform="translate(185,241.1) scale(.421139,.421139) translate(-256,-306.1)"><path d="M295 222.6h-44.6c-9.2 0-16.7-7.5-16.7-16.7c0-9.2 7.5-16.7 16.7-16.7h44.6c9.2 0 16.7 7.5 16.7 16.7c0 9.2-7.5 16.7-16.7 16.7Z" fill="#979ca7"/><path d="M295 289.4h-78c-9.2 0-16.7-7.5-16.7-16.7c0-9.2 7.5-16.7 16.7-16.7h78c9.2 0 16.7 7.5 16.7 16.7c0 9.2-7.5 16.7-16.7 16.7Z" fill="#979ca7"/><path d="M295 356.2h-44.6c-9.2 0-16.7-7.5-16.7-16.7c0-9.2 7.5-16.7 16.7-16.7h44.6c9.2 0 16.7 7.5 16.7 16.7c0 9.2-7.5 16.7-16.7 16.7Z" fill="#979ca7"/><path d="M295 423h-78c-9.2 0-16.7-7.5-16.7-16.7c0-9.3 7.5-16.7 16.7-16.7h78c9.2 0 16.7 7.4 16.7 16.7c0 9.2-7.5 16.7-16.7 16.7Z" fill="#979ca7"/></g><path d="M199 168.4c3.9 0 7.1-3.1 7.1-7v-14.1c0-11.6-9.5-21.1-21.1-21.1h-8.2c-3-8.1-10.8-14-19.9-14v56.2h42.1Z" fill="#757982"/><path d="M292.8 271.6v17.7c0 3.3-0.8 6.6-2.2 9.4l-7.5 15.1l-5.1 10.1c-1.3 2.6-3.8 3.9-6.3 3.9c-2.4 0-5-1.3-6.3-3.9l-5.1-10.1l-7.5-15.1c-1.4-2.8-2.2-6.1-2.2-9.4v-17.7h42.2Z" fill="#ffeacc"/><path d="M271.7 327.8c2.5 0 5-1.3 6.3-3.9l5.1-10.1l7.5-15.1c1.4-2.8 2.2-6.1 2.2-9.4v-17.7h-21.1v56.2Z" fill="#ffdbb2"/><path d="M283.1 313.8l-5.1 10.1c-1.3 2.6-3.8 3.9-6.3 3.9c-2.4 0-5-1.3-6.3-3.9l-5.1-10.1h22.8Z" fill="#7f838c"/><path d="M271.7 327.8c2.5 0 5-1.3 6.3-3.9l5.1-10.1h-11.4v14Z" fill="#757982"/><rect width="100.2" height="200.4" fill="#54ccff" transform="translate(271.7,243.4) scale(.421139,.421139) translate(-50.1,-100.2)"/><rect width="50.1" height="200.4" fill="#4bb8e6" transform="translate(282.2,243.4) scale(.421139,.421139) translate(-25,-100.2)"/></svg>
