<svg xmlns="http://www.w3.org/2000/svg" viewBox="0 0 370 475"><path d="M333.2 96.4c-20.1-0.4-36.5 16.4-36.5 36.5v59.2c0 13.2 10.7 23.9 23.9 23.9h24c13.2 0 23.9-10.7 23.9-23.9v-59.8c0-19.6-15.8-35.6-35.3-35.9Z" fill="#f9bc35"/><path d="M344.6 216c13.2 0 23.9-10.7 23.9-23.9v-59.8c0-19.8-16.1-35.9-35.9-35.9v119.6h12Z" fill="#f39e31"/><path d="M236.9 88.4h-199.5c-19.8 0-35.9 16.1-35.9 35.9v247.3c0 19.8 16.1 35.9 35.9 35.9h199.5c19.8 0 35.9-16.1 35.9-35.9v-247.3c0-19.8-16.1-35.9-35.9-35.9Z" fill="#e6eeff"/><path d="M236.9 88.4h-99.8v319.1h99.8c19.8 0 35.9-16.1 35.9-35.9v-247.3c0-19.8-16.1-35.9-35.9-35.9Z" fill="#dae2f2"/><path d="M208.9 136.2h-143.6c-6.6 0-11.9-5.3-11.9-11.9v-24c0-19.8 16.1-35.9 35.9-35.9h14c4.9-13.9 18.2-23.9 33.8-23.9c15.6 0 28.9 10 33.9 23.9h14c19.8 0 35.9 16.1 35.9 35.9v24c0 6.6-5.4 11.9-12 11.9Z" fill="#7f838c"/><g transform="translate(89.3,259.9) scale(.716781,.716781) translate(-122.4,-306.1)"><path d="M105.7 289.4c-4.2 0-8.5-1.6-11.8-4.9l-33.4-33.4c-6.5-6.5-6.5-17.1 0-23.6c6.6-6.5 17.1-6.5 23.7 0l21.5 21.6l55-55c6.5-6.5 17.1-6.5 23.6 0c6.5 6.5 6.5 17.1 0 23.6l-66.8 66.8c-3.2 3.3-7.5 4.9-11.8 4.9Z" fill="#54ccff"/><path d="M105.7 423c-4.2 0-8.5-1.7-11.8-4.9l-33.4-33.4c-6.5-6.5-6.5-17.1 0-23.6c6.6-6.6 17.1-6.6 23.7 0l21.5 21.6l55-55c6.5-6.5 17.1-6.5 23.6 0c6.5 6.5 6.5 17.1 0 23.6l-66.8 66.8c-3.2 3.2-7.5 4.9-11.8 4.9Z" fill="#54ccff"/></g><g transform="translate(185,259.9) scale(.716781,.716781) translate(-256,-306.1)"><path d="M295 222.6h-44.6c-9.2 0-16.7-7.5-16.7-16.7c0-9.2 7.5-16.7 16.7-16.7h44.6c9.2 0 16.7 7.5 16.7 16.7c0 9.2-7.5 16.7-16.7 16.7Z" fill="#979ca7"/><path d="M295 289.4h-78c-9.2 0-16.7-7.5-16.7-16.7c0-9.2 7.5-16.7 16.7-16.7h78c9.2 0 16.7 7.5 16.7 16.7c0 9.2-7.5 16.7-16.7 16.7Z" fill="#979ca7"/><path d="M295 356.2h-44.6c-9.2 0-16.7-7.5-16.7-16.7c0-9.2 7.5-16.7 16.7-16.7h44.6c9.2 0 16.7 7.5 16.7 16.7c0 9.2-7.5 16.7-16.7 16.7Z" fill="#979ca7"/><path d="M295 423h-78c-9.2 0-16.7-7.5-16.7-16.7c0-9.3 7.5-16.7 16.7-16.7h78c9.2 0 16.7 7.4 16.7 16.7c0 9.2-7.5 16.7-16.7 16.7Z" fill="#979ca7"/></g><path d="M208.9 136.2c6.6 0 12-5.3 12-11.9v-24c0-19.8-16.1-35.9-35.9-35.9h-14c-5-13.9-18.3-23.9-33.9-23.9v95.7h71.8Z" fill="#757982"/><path d="M368.5 311.8v30.2c0 5.6-1.3 11.1-3.8 16l-12.7 25.6l-8.7 17.3c-2.2 4.4-6.5 6.6-10.7 6.6c-4.2 0-8.5-2.2-10.7-6.6l-8.7-17.3l-12.8-25.6c-2.4-4.9-3.7-10.4-3.7-16v-30.2h71.8Z" fill="#ffeacc"/><path d="M332.6 407.5c4.2 0 8.5-2.2 10.7-6.6l8.7-17.3l12.7-25.6c2.5-4.9 3.8-10.4 3.8-16v-30.2h-35.9v95.7Z" fill="#ffdbb2"/><path d="M352 383.6l-8.7 17.3c-2.2 4.4-6.5 6.6-10.7 6.6c-4.2 0-8.5-2.2-10.7-6.6l-8.7-17.3h38.8Z" fill="#7f838c"/><path d="M332.6 407.5c4.2 0 8.5-2.2 10.7-6.6l8.7-17.3h-19.4v23.9Z" fill="#757982"/><rect width="100.2" height="200.4" fill="#54ccff" transform="translate(332.6,263.9) scale(.716781,.716781) translate(-50.1,-100.2)"/><rect width="50.1" height="200.4" fill="#4bb8e6" transform="translate(350.5,263.9) scale(.716781,.716781) translate(-25,-100.2)"/></svg>