<svg xmlns="http://www.w3.org/2000/svg" viewBox="0 0 370 475"><g transform="translate(185,225.6) scale(1.35002,1.35002) translate(-81.4,-72.5)"><path class="cls-1" d="M162.1 135.9c-1.4 4.8-5.8 8-10.8 8h-140c-4 0-7.8-2.2-9.8-5.7c-2-3.5-2-7.8 0-11.3l70-121.1c2-3.6 5.8-5.7 9.8-5.7c4.1 0 7.8 2.1 9.8 5.7l70 121.1c1.6 2.7 2 6 1 9Z" fill="#fff"/><path class="cls-2" d="M156.4 142.9l-141 2c-13.1 .7-19.7-14.8-11-23l72-121c2.8-1.6 13.6-0.4 14.7 4.8l68.3 120.2c5.7 3 .8 17.2-3 17Z" fill="#ffc861"/><path class="cls-3" d="M83 111.5c-1.9-0.1-3.9-0.1-5.8 0c-2.6 .1-4.7-1.9-4.9-4.4l-3.7-58.8c0-1.3 .4-2.5 1.3-3.5c.8-0.9 2-1.5 3.3-1.5c4.6-0.2 9.2-0.2 13.8 0c1.3 0 2.5 .6 3.3 1.5c.9 1 1.3 2.2 1.2 3.5l-3.7 58.8c-0.1 2.5-2.2 4.4-4.8 4.4Z" fill="#2f4360"/><path class="cls-3" d="M87 121.6c-0.4 3.5-3.4 6.2-6.9 6.2c-3.5 0-6.5-2.7-6.8-6.2c-0.3-3.5 2.8-6.7 6.8-6.7c4 0 7.1 3.2 6.9 6.7Z" fill="#2f4360"/><path class="cls-4" d="M1.6 126.8l70-121.1c2-3.5 5.7-5.7 9.8-5.7c4 0 7.8 2.2 9.8 5.7l70 121.1c2 3.5 2 7.9 0 11.4c-2 3.5-5.8 5.6-9.8 5.6h-140.1c-4 0-7.7-2.1-9.8-5.7c-2-3.5-2-7.8 .1-11.3Z" stroke-width="6px" stroke-linecap="round" stroke-linejoin="round" stroke="#2f4360" fill="none"/></g></svg>