<svg xmlns="http://www.w3.org/2000/svg" viewBox="0 0 370 475"><g transform="scale(.935676,.927622)"><path d="M257.1 28.6v40.1h-118.9v-40.1c0-14.6 10.9-26.7 25.1-28.4c1.1-0.1 2.3-0.2 3.5-0.2h61.7c15.8 0 28.6 12.8 28.6 28.6Zm0 0" fill="#D16B58"/><path d="M336.5 502.7c-6.1 6-14.3 9.3-22.9 9.3h-231.9c-8.6 0-16.8-3.3-22.9-9.2c-36.3-35.9-58.8-85.7-58.8-140.8c0-85.2 54-157.9 129.6-185.6c7.7-2.8 12.8-10 12.8-18.2v-62.9h110.4v63c0 8.1 5.1 15.4 12.7 18.2c73.6 27 127.2 96.8 129.7 179.5c1.7 57.4-21.1 109.5-58.7 146.7Zm0 0" fill="#169b62"/><path d="M336.5 502.7c-6.1 6-14.3 9.3-22.9 9.3h-177.8c-8.6 0-16.8-3.3-22.8-9.2c-36.4-35.9-58.9-85.7-58.9-140.8c0-85.2 54-157.9 129.6-185.6c7.7-2.8 12.9-10 12.9-18.2v-62.9h56.2v63c0 8.1 5.1 15.4 12.7 18.2c73.6 27 127.2 96.8 129.7 179.5c1.7 57.4-21.1 109.5-58.7 146.7Zm0 0" fill="#1ab975"/><path d="M227.5 219c-5.7-1.3-11.3-2.2-16.9-2.8c-70.8-7.5-134.9 40.2-134.3 103.9c.3 32 17.1 66.1 43.4 90.3c2.2 2.1 3.5 5.1 3.5 8.2v37.7c0 6.2 5 11.2 11.2 11.2c137.7 .5 129 .5 130.1 .4c5.5-0.7 9.8-5.5 9.8-11.2l-0.2-37.5c0-3.1 1.2-6.1 3.5-8.2c25.7-24.1 41.8-58.1 41.5-90c-0.9-81.2-91.4-101.9-91.6-102Zm0 0" fill="#4b5055"/><path d="M227.5 219c-5.7-1.3-11.3-2.2-16.9-2.8c-58.4 6.2-105.7 49.1-105.2 103.9c.4 32 17.2 66.1 43.4 90.3c2.3 2.1 3.5 5.1 3.5 8.2v37.7c0 6.2 5 11.2 11.2 11.2c0 0 101 .4 101 .4c5.5-0.7 9.8-5.5 9.8-11.2l-0.2-37.5c0-3.1 1.2-6.1 3.5-8.2c25.7-24.1 41.8-58.1 41.5-90c-0.9-81.2-91.4-101.9-91.6-102Zm0 0" fill="#5a5f64"/><path d="M179.1 417.1v50.6l-15.6-0.1v-50.5c0-4.3 3.5-7.8 7.8-7.8c4.3 0 7.8 3.5 7.8 7.8Zm0 0" fill="#d2d2d7"/><path d="M231.9 417.1v50.7h-15.7v-50.7c0-4.3 3.5-7.8 7.9-7.8c4.3 0 7.8 3.5 7.8 7.8Zm0 0" fill="#d2d2d7"/><path d="M111.1 286.2c11.8 14.3 39.3 42.9 71.9 45.3c3.8 .3 5.1 5.2 2 7.4c-25.4 18.3-90 55.1-81.2-50.5c.3-3.6 4.9-5.1 7.3-2.2Zm0 0" fill="#FF816B"/><path d="M284.3 286.2c-11.8 14.3-39.3 42.9-71.9 45.3c-3.8 .3-5.2 5.2-2.1 7.4c25.5 18.3 90.1 55.1 81.2-50.5c-0.3-3.6-4.8-5.1-7.2-2.2Zm0 0" fill="#FF816B"/><path d="M275.3 56.8v58.3c0 2.9-2.3 5.2-5.2 5.2h-145c-2.8 0-5.2-2.3-5.2-5.2v-58.3c0-2.9 2.4-5.2 5.2-5.2h145c2.9 0 5.2 2.3 5.2 5.2Zm0 0" fill="#4b5055"/><path d="M257.1 28.6v19.8h-95v-40.1c0-2.8 .4-5.5 1.2-8.1c1.1-0.1 2.3-0.2 3.5-0.2h61.7c15.8 0 28.6 12.8 28.6 28.6Zm0 0" fill="#FF816B"/><path d="M275.3 56.8v43.2h-126.2c-2.9 0-5.2-2.3-5.2-5.2v-43.2h126.2c2.9 0 5.2 2.3 5.2 5.2Zm0 0" fill="#5a5f64"/></g></svg>