<svg xmlns="http://www.w3.org/2000/svg" viewBox="0 0 370 475"><path stroke="#000" fill="#83c193" stroke-width="0px" d="M0 144c66-27 88-25 100.9-17.9c9.1 5.9 13.1 14.9 25.2 18.6c27.9 5.3 46.9-7.7 69.6-17.3c9.3-3.4 19.3-6.4 31.3-6.8c24 1.4 49 10.4 71.7 15c8.3 2.4 17.3 3.4 26.3 3c23 1.4 48-14.6 73.9-23.2c8.1-2.4 17.1-4.4 27.1-4.6c37 .2 37 7.2 70 28.2c-34-20-34-27-70-27.8c-10 .8-19 2.8-26.9 4.8c-26.1 9-50.1 25-74.1 23.4c-9 .6-18-0.4-26.5-2.9c-22.5-4.5-47.5-13.5-71.5-15.1c-12 .6-22 3.6-30.9 6.8c-22.1 8.8-42.1 22.8-70.2 17.1c-12.9-3.3-16.9-12.3-25.3-18.7c-12.6-7.6-34.6-9.6-100.6 17.4" transform="translate(173.9,230.5) rotate(-52.8) skewX(16.9) scale(1.20043,1.39298) translate(-248,-128.7)"/><path stroke="#000" fill="#83c193" stroke-width="0px" d="M31.9 131.9c-0.9-0.9-0.9-1.9-0.2-3c-4.7-2.9-2.7-6.9-1.3-12.1c.6 5.2 3.6 8.2 1.1 12.1c-0.5 1.1-0.5 2.1 .4 3" transform="translate(10.3,436.2) rotate(-52.8) skewX(16.9) scale(1.20043,1.39298) translate(-30.6,-124.4)"/><path stroke="#000" fill="#008020" stroke-width="0px" d="M65 122.9c1 2.1 1 5.1 4.4 6.4c7.6 1.7 8.6 7.7 11.7 13.7c.9 4 1.9 7 3.6 11.2c-3.7-2.2-6.7-4.2-9.1-7.5c-5.6-4.7-10.6-8.7-7.2-16.8c-0.4-2.9-2.4-3.9-3.4-7" transform="translate(61.8,401) rotate(-52.8) skewX(16.9) scale(1.20043,1.39298) translate(-74.9,-138.5)"/><path stroke="#000" fill="#83c193" stroke-width="0px" d="M98.8 125.1c2.2-1.1 6.2-3.1 9.3-6.5c-2.1-9.6 2.9-10.6 7.9-14.4c6-3.2 14-6.2 25.8-7.8c1.2 .6 3.2-0.4 5-0.8c-1.8 2.4-2.8 3.4-3.4 3.8c-7.4 8.6-14.4 14.6-19.2 18c-5.2 2.6-8.2 6.6-16.1 1.2c-4.1 2.4-7.1 4.4-9.3 6.5" transform="translate(58.1,341) rotate(-52.8) skewX(16.9) scale(1.20043,1.39298) translate(-122.8,-110.4)"/><path stroke="#000" fill="#83c193" stroke-width="0px" d="M126.6 145.1c1.4 4.9 3.4 8.9 5.5 12.9c8.9 0 10.9 3 14.4 5.7c3.5 6.3 6.5 14.3 9.5 23.9c1 6.4 2 11.4 4.2 18.3c-6.2-3.9-11.2-7.9-14.8-11.9c-8.4-7-14.4-14-16.3-21.1c-1.1-3.9-3.1-7.9 3.7-15.3c-2.8-3.6-4.8-7.6-6.2-12.5" transform="translate(162,354.1) rotate(-52.8) skewX(16.9) scale(1.20043,1.39298) translate(-143.4,-175.5)"/><path stroke="#000" fill="#83c193" stroke-width="0px" d="M160.6 142.4c1.4-3.4 3.4-8.4 6.5-13.8c-7.1-5.6-6.1-9.6-5.3-14.4c1.2-7.2 6.2-14.2 14.4-22.3c4.8-4.9 10.8-10.9 19.9-16.8c-2.1 10.9-4.1 18.9-5.2 25.2c-2.9 10.7-5.9 18.7-10.2 23.3c-3.7 3.4-5.7 5.4-14.4 4.6c-2.3 5.8-4.3 9.8-5.7 14.2" transform="translate(96.1,287) rotate(-52.8) skewX(16.9) scale(1.20043,1.39298) translate(-178.4,-108.7)"/><path stroke="#000" fill="#83c193" stroke-width="0px" d="M193.1 128.9c3.9 2.1 8.9 5.1 14.5 5.5c5.4-6.4 8.4-5.4 12.9-7.1c6.5 .7 14.5 3.7 23.9 8.6c5.6 4.1 13.6 8.1 22.4 14c-10.8 3.1-18.8 3.1-26.5 3c-11.3 1.1-20.3-0.9-26.1-5.3c-3.2-2.6-6.2-4.6-6.5-13.4c-5.7-2.2-10.7-3.2-14.6-5.3" transform="translate(176.6,253.5) rotate(-52.8) skewX(16.9) scale(1.20043,1.39298) translate(-230,-140.2)"/><path stroke="#000" fill="#83c193" stroke-width="0px" d="M227.8 121c3.2-2 7.2-4 12.4-7.5c-2.2-8.5 .8-10.5 4.2-15c5.6-4.5 13.6-7.5 24.7-10c5.9-0.5 12.9-1.5 21.7-2.6c-5.8 7.1-10.8 11.1-15.2 15.4c-8.6 7.7-14.6 12.7-21 14.7c-4.6 1-7.6 3-15-3.4c-4.6 3.4-8.6 6.4-11.8 8.4" transform="translate(147.7,206.9) rotate(-52.8) skewX(16.9) scale(1.20043,1.39298) translate(-259.3,-103.5)"/><path stroke="#000" fill="#008020" stroke-width="0px" d="M263.7 127.3c2.3 3.7 5.3 6.7 8.6 8.9c8.7-3.2 10.7 .8 15.7 2.6c5 5.2 10 11.2 16.1 20.4c.9 2.8 2.9 5.8 5.8 9c-3.9-0.2-7.9-2.2-10.1-3.5c-10.8-2.7-18.8-7.7-23.5-13c-3.3-3.7-7.3-6.7-3.7-15.7c-3.6-3-6.6-6-8.9-8.7" transform="translate(228,202.9) rotate(-52.8) skewX(16.9) scale(1.20043,1.39298) translate(-286.8,-147.7)"/><path stroke="#000" fill="#008020" stroke-width="0px" d="M300 136.3c2-0.3 5-0.3 8.5-2c2.5-9.3 8.5-7.3 15.6-8.7c4.9 .4 10.9 1.4 18.4 1.8c-6.5 3.6-12.5 6.6-16.5 7.9c-7 1.7-11 5.7-17.6-1.3c-3.4 1-6.4 2-8.4 2.3" transform="translate(231.2,161.9) rotate(-52.8) skewX(16.9) scale(1.20043,1.39298) translate(-321.2,-131.8)"/><path stroke="#000" fill="#83c193" stroke-width="0px" d="M338.5 137.8c1.5 .2 3.5 2.2 5.9 .3c6.6-3.1 11.6 .9 19.6 3.4c0 .5 0 1.5 1.4 .6c-1.4 .9-1.4 .9-1.5 .2c-7.9 1.7-14.9 3.7-19.8-2.7c-2.1-1.6-4.1-0.6-5.6-1.8" transform="translate(265.4,136.9) rotate(-52.8) skewX(16.9) scale(1.20043,1.39298) translate(-352,-140.5)"/><path stroke="#000" fill="#008020" stroke-width="0px" d="M376.5 124.3c.5-0.3 2.5-1.3 3.7-4c.8-7.3 7.8-8.3 15.8-11.7c-5 6.4-8 13.4-15 12.8c-3 .6-4 2.6-4.5 2.9" transform="translate(257.4,92) rotate(-52.8) skewX(16.9) scale(1.20043,1.39298) translate(-386.2,-116.4)"/><path stroke="#000" fill="#008020" stroke-width="0px" d="M416.4 111.7c.6 .3 1.6 1.3 3.9 .4c4.7-3.1 9.7 .9 15.6 1.5c-5.9 1.4-11.9 4.4-15.6-1.5c-2.3-0.1-3.3-0.1-3.9-0.4" transform="translate(282,52.3) rotate(-52.8) skewX(16.9) scale(1.20043,1.39298) translate(-426.1,-113.3)"/><path stroke="#000" fill="#008020" stroke-width="0px" d="M459.6 115.8c.4 .2 .4 1.2 2.1 0c2.3-0.8 4.3 1.2 7.4 1.7c-3.1 .5-6.1 1.5-7.5-1.1c-0.6-0.4-1.6-0.4-2-0.6" transform="translate(314.6,17.6) rotate(-52.8) skewX(16.9) scale(1.20043,1.39298) translate(-464.3,-116.9)"/><path stroke="#000" fill="#804010" stroke-width="0px" d="M-1.3 140.8c66.3-25.8 89.3-24.8 103.5-16.7c8.8 6.9 12.8 15.9 24.3 18.5c26.5 5.4 46.5-7.6 68.7-16.7c8.8-2.9 19.8-5.9 31.9-6.7c24.9 1.8 48.9 10.8 71.8 15.5c9.1 2.3 17.1 4.3 26.1 3.1c23 1.2 47-13.8 73.8-22.8c8.2-2 17.2-4 27.2-4.5c34 .5 36 6.5 63.3 24.1c-27.3-16.6-29.3-22.6-63.3-23.1c-10 .5-19 2.5-26.8 4.8c-26.2 8.7-50.2 24.7-74.2 23.9c-9 .8-18-0.2-26.7-2.8c-23.3-4.4-47.3-12.4-71.4-14.6c-10.9 .2-20.9 3.2-30.2 6.9c-21.7 9.3-41.7 23.3-71.2 17.7c-14.5-3.4-18.5-13.4-26.2-18.8c-11.3-6.6-32.3-8.6-98 18.6" transform="translate(172.2,234.7) rotate(-52.8) skewX(16.9) scale(1.20043,1.39298) translate(-244,-129.6)"/><path stroke="#000" fill="#804010" stroke-width="0px" d="M31.7 131.9c-0.7-2.9-1.7-6.9-1-11.1c.3 4.2 .3 8.2 1.5 11.1" transform="translate(13.5,436.6) rotate(-52.8) skewX(16.9) scale(1.20043,1.39298) translate(-31.3,-126.4)"/><path stroke="#000" fill="#804010" stroke-width="0px" d="M65.6 122.5c3.4 7.5 7.4 14.5 12.8 22.3c-0.4 1.2-0.4 1.2 .8 1.3c-1.2-0.1-1.2-0.1-0.9-1.2c-6.3-7.9-10.3-14.9-13.9-21.7" transform="translate(53.8,401.8) rotate(-52.8) skewX(16.9) scale(1.20043,1.39298) translate(-71.8,-134.3)"/><path stroke="#000" fill="#804010" stroke-width="0px" d="M98.1 124.2c5.9-4.2 11.9-8.2 21.6-14c3.3-2.2 8.3-4.2 13.8-7.3c-5.5 4.1-9.5 6.1-13 8.6c-8.5 6.5-15.5 10.5-21.1 14.6" transform="translate(58.6,349.8) rotate(-52.8) skewX(16.9) scale(1.20043,1.39298) translate(-115.8,-114.5)"/><path stroke="#000" fill="#804010" stroke-width="0px" d="M128 144.5c3 7.5 6 14.5 10.9 23.2c2.1 7.3 6.1 14.3 11.4 22.6c-6.3-7.3-10.3-14.3-13.6-21.4c-5.7-7.9-8.7-15.9-11.4-23.2" transform="translate(146.8,355.3) rotate(-52.8) skewX(16.9) scale(1.20043,1.39298) translate(-137.8,-167.4)"/><path stroke="#000" fill="#804010" stroke-width="0px" d="M159.1 141.7c1.9-6.7 5.9-13.7 10.8-23.4c3.1-6.3 7.1-13.3 13.4-22.3c.7-1 .7-2 2.4-3.6c-0.7 1.6-1.7 2.6-2 3.8c-4.7 9.8-8.7 17.8-11.2 23.4c-4.5 9.4-7.5 17.4-10.3 23.4" transform="translate(104,297.2) rotate(-52.8) skewX(16.9) scale(1.20043,1.39298) translate(-172.4,-117.7)"/><path stroke="#000" fill="#804010" stroke-width="0px" d="M193.7 127.4c6.3 2.6 14.3 5.6 24.1 8.7c6.2 2.9 14.2 4.9 24.6 8c.6 .9 2.6 1.9 4.6 1.4c-2 .5-4-0.5-4.7-0.9c-10.3-1.6-19.3-3.6-25.4-5.7c-9.9-1.9-17.9-4.9-24.4-8.4" transform="translate(164.1,261.4) rotate(-52.8) skewX(16.9) scale(1.20043,1.39298) translate(-219.8,-136.5)"/><path stroke="#000" fill="#804010" stroke-width="0px" d="M226.9 119.8c6.1-3.8 12.1-8.8 21.9-13.7c6.2-3.1 13.2-7.1 23.5-11.2c-0.3 .1 .7 .1 1.4-0.7c-0.7 .8-1.7 .8-1.3 .8c-9.4 6-16.4 10-22.2 13.4c-9.2 5.6-15.2 10.6-21.5 13.9" transform="translate(147.7,217.9) rotate(-52.8) skewX(16.9) scale(1.20043,1.39298) translate(-250.3,-108.3)"/><path stroke="#000" fill="#804010" stroke-width="0px" d="M264.6 126.4c5.4 5.6 10.4 11.6 18.2 18.1c3.2 4.5 8.2 8.5 14.1 13.4c-6.9-3.9-11.9-7.9-15.4-12c-8.5-5.9-13.5-11.9-18.7-17.8" transform="translate(215.3,206.7) rotate(-52.8) skewX(16.9) scale(1.20043,1.39298) translate(-279.8,-142.1)"/><path stroke="#000" fill="#804010" stroke-width="0px" d="M299.8 135.5c7.2-1.5 14.2-3.5 25.2-5.3c1-0.2 3-0.2 6.1-0.9c-3.1 .7-5.1 1.7-6 1.4c-10.1 3.3-18.1 5.3-24.9 6.4" transform="translate(229,168.2) rotate(-52.8) skewX(16.9) scale(1.20043,1.39298) translate(-315.4,-133.2)"/><path stroke="#000" fill="#804010" stroke-width="0px" d="M338.6 137.4c5.4 1.6 11.4 2.6 19.5 3.7c-8.1-0.1-14.1-1.1-19.7-2.8" transform="translate(261,139.8) rotate(-52.8) skewX(16.9) scale(1.20043,1.39298) translate(-348.3,-139.2)"/><path stroke="#000" fill="#804010" stroke-width="0px" d="M376.2 124c3.8-3 8.8-7 14.4-11.3c-5.6 5.3-9.6 9.3-13.8 11.9" transform="translate(258.4,95.9) rotate(-52.8) skewX(16.9) scale(1.20043,1.39298) translate(-383.4,-118.7)"/><path stroke="#000" fill="#804010" stroke-width="0px" d="M416.4 111.3c3.6 .7 8.6 1.7 14.1 1.9c-5.5 .8-10.5-0.2-14.2-1.2" transform="translate(278.8,54.5) rotate(-52.8) skewX(16.9) scale(1.20043,1.39298) translate(-423.4,-112.4)"/><path stroke="#000" fill="#804010" stroke-width="0px" d="M459.6 115.6c1.4 .4 4.4 1.4 7.1 1.5c-2.7-0.1-5.7-0.1-7.1-1.2" transform="translate(313,18.4) rotate(-52.8) skewX(16.9) scale(1.20043,1.39298) translate(-463.1,-116.3)"/></svg>