<svg xmlns="http://www.w3.org/2000/svg" viewBox="0 0 370 475">
<g style="opacity:{{stand=1}}" transform="translate(0 0) scale(1)"><rect x="25" y="30" width="10" height="440" fill="#5e5e5e"/><rect x="25" y="464" width="320" height="10" fill="#5e5e5e"/></g>

<g style="opacity:{{stirrer=1}}" transform="translate(0 336) scale(1)">
<defs><linearGradient id="Grd-0" x1="0" y1="24" x2="370" y2="24" gradientUnits="userSpaceOnUse"><stop offset="0" stop-color="#b2b2b2"/><stop offset="0.15" stop-color="#e2e2e2"/><stop offset="0.876" stop-color="#e2e2e2"/><stop offset="1" stop-color="#b2b2b2"/></linearGradient></defs>
<path fill="url(#Grd-0)" d="M35,0L334,0C345,0,349,6,354,20C358,30,365,41,369,53L1.2,52L15,20C20,7,24,0,35,0Z"/>
<rect rx="20" ry="20" width="370" height="100" fill="#a6a6a6" transform="translate(0,39)"/>
<ellipse stroke="#8b0000" stroke-width="7" fill="#808080" rx="33" ry="33" transform="translate(60,89)"/>
<ellipse stroke="#8b0000" stroke-width="7" fill="#808080" rx="33" ry="33" transform="translate(230,89)"/>
<rect rx="10" ry="10" width="75" height="40" fill="#d3d3d3" transform="translate(100,69)"/>
<rect rx="10" ry="10" width="70" height="40" fill="#d3d3d3" transform="translate(270,69)"/>
<text font-size="20" font-family="arial" fill="#444" transform="translate(108,98)">{{rpm=900}}</text>
<text font-size="20" font-family="arial" fill="#8b0000" transform="translate(280,98)">{{temperature=30}}</text>
<text font-size="14" font-family="arial" fill="#000" transform="translate(146,97)">rpm</text>
<text font-size="14" font-family="arial" fill="#8b0000" transform="translate(318,97)">°C</text></g>

<g style="opacity:{{reflux=1}}">
<defs><linearGradient id="Gradient-0" x1="50.5" y1="80.5" x2="-1" y2="81" gradientUnits="userSpaceOnUse"><stop offset="0" stop-color="#707070" stop-opacity="0.39"/><stop offset="0.525" stop-color="#ffffff" stop-opacity="0.23"/><stop offset="1" stop-color="#dfdfdf" stop-opacity="0.41"/></linearGradient></defs>
<rect x="165" y="0" rx="20" ry="10" width="45" height="170" fill="#d3d3d3"/>
<rect x="175" y="0" rx="20" ry="10" width="25" height="160" fill="#add8e6"/>
<rect x="130" y="20" rx="0" ry="0" width="35" height="20" fill="#d3d3d3"/>
<rect x="130" y="120" rx="0" ry="0" width="35" height="20" fill="#d3d3d3"/>
<rect x="130" y="25" rx="0" ry="0" width="40" height="10" fill="#add8e6"/>
<rect x="130" y="125" rx="0" ry="0" width="40" height="10" fill="#add8e6"/>
<rect rx="20" ry="10" width="45" height="170" fill="url(#Gradient-0)" transform="translate(165,0)"/></g>

<g style="opacity:{{rb2n=1}}">
<linearGradient id="grdneck2" x1="0" y1="19" x2="65" y2="17.5" gradientUnits="userSpaceOnUse"><stop offset="0" stop-color="#f2f2f2"></stop><stop offset="0.6" stop-color="#d5d5d5"></stop></linearGradient>
<rect width="45" height="60" fill="url(#grdneck2)" transform="translate(245,180) rotate(30)"></rect></g>

<g style="opacity:{{rbgas=0}}">
<rect x="115" y="210" width="15" height="50" fill="#eeeeee"></rect>
<rect x="100" y="210" width="20" height="15" fill="#eeeeee"></rect>
<rect x="90" y="210" width="15" height="15" fill="#b9b9b9"></rect></g>

<g style="opacity:{{rb=1}}" transform="translate(110 150) scale(0.42)">
<ellipse rx="185" ry="185" cx="185" cy="313" fill="#eeeeee" stroke="#eeeeee"/>
<g><style>@keyframes wavedown{0%{transform:translate(0px,0px)}100%{transform:translate(400px,0px)}}
@keyframes waveup{0%{transform:translate(0px,0px)}100%{transform:translate(-400px,0px)}}</style>
<mask id="wave" mask-type="alpha">
<path d="M-100,{{waveup=520}} q100,20,200,0 t 200 0 200 0 200 0 200 0 200 0 200 0 200 0 200 0" stroke="#eeeeee" stroke-width="400" style="animation: 0.5s linear infinite both waveup"/>
<path d="M-500,{{wavedown=500}} q100,20,200,0 t 200 0 200 0 200 0 200 0 200 0 200 0 200 0 200 0" stroke="#eeeeee" stroke-width="400" opacity="0.5" style="animation: 0.5s linear infinite both wavedown;"/></mask>
<mask id="still" mask-type="alpha"><path d="M-100,{{still=520}} H1000" stroke="#eeeeee" stroke-width="400"/></mask>
<ellipse fill="{{solvent=lightblue}}" mask="url(#{{stirring=wave}})" rx="180" ry="180" cx="185" cy="313" stroke="#eeeeee"/></g>
<g><radialGradient id="grdRB" cx="90" cy="250" r="260" gradientUnits="userSpaceOnUse"><stop offset="0" stop-color="#ffffff" stop-opacity="0"/><stop offset="0.6" stop-color="#e4e4e4" stop-opacity="0.2"/><stop offset="1" stop-color="#555555" stop-opacity="0.4"/></radialGradient>
<ellipse cx="185" cy="313" rx="185" ry="185" fill="url(#grdRB)"/></g>
<g><linearGradient id="grdNeck" x1="0" y1="0.38" x2="1" y2="0.35" gradientUnits="objectBoundingBox"><stop offset="0" stop-color="#f2f2f2"/><stop offset="0.5" stop-color="#efefef"/><stop offset="1" stop-color="#d3d3d3"/></linearGradient><mask id="opacNeck" maskUnits="objectBoundingBox" maskContentUnits="objectBoundingBox"><rect x="0" y="0" width="1" height="1" fill="url(#opacNeckX)"/></mask><linearGradient id="opacNeckX" x1="0%" y1="100%" x2="0%" y2="0%" gradientUnits="objectBoundingBox"><stop offset="0%" stop-color="white" stop-opacity="0"/><stop offset="18%" stop-color="white" stop-opacity="1"/><stop offset="100%" stop-color="white" stop-opacity="1"/></linearGradient>
<rect x="115" y="65" width="145" height="95" fill="url(#grdNeck)" mask="url(#opacNeck)"/></g></g>
	
<g style="opacity:{{bubble=0}}" transform="translate(100 150) scale(0.42)">
<style>.b{fill:#d1cfd1;offset-rotate:0deg}
@keyframes mo{from{offset-distance:0%}to{offset-distance:100%}}
@keyframes o{from{opacity:0}to{opacity:.4}}</style>
<ellipse id="bbl1" rx="20" ry="20" class="b" style="opacity:0;animation:o 0s steps(1,end) both,mo 3s linear 0s infinite both;offset-path:path('M230,450C350,350,170,150,150,60')"/>
<ellipse id="bbl2" rx="15" ry="15" class="b" style="opacity:0;animation:o 1s steps(1,end) both,mo 3s linear 1s infinite both;offset-path:path('M190,460C50,360,130,190,230,50')"/>
<ellipse id="bbl3" rx="20" ry="20" class="b" style="opacity:0;animation:o 2s steps(1,end) both,mo 3s linear 2s infinite both;offset-path:path('M200,460C240,300,130,130,210,60')"/></g>
	
<g style="opacity:{{leaves=0}}" transform="translate(95 200) scale(0.9)" opacity="0.6">
<style>.leaves{fill:#83c193;offset-rotate:0deg;animation:spin 1.2s linear infinite both,mo 1.2s linear infinite both}
@keyframes spin{from{transform:rotate(0) scale(var(--s)) translate(var(--x),var(--y))}to{transform:rotate(1turn) scale(var(--s)) translate(var(--x),var(--y))}}
@keyframes mo{0%{offset-distance:0%}50%{offset-distance:var(--d1,50%)}90%{offset-distance:var(--d2,90%)}to{offset-distance:100%}}</style>
<path class="leaves" d="M11,-1C13,7,14,15,14,23C-15,37,-30,42,-28,47C-26,51,-10,40,15,29C16,36,17,42,17,48L-58,66C-63,29,-35,0,11,-1Z" style="--x:21px;--y:-32px;--s:.3;--d1:41.293%;--d2:93.04%;offset-path:path('M30,98C30,125,65,162,112,159C167,114,113,92,48,94C38,94,41,97,30,98')"/>
<path class="leaves" d="M0,0C3,16,5,33,6,49L72,68C73,24,52,-4,0,0Z" style="--x:-46px;--y:-30px;--s:.3;--d1:53.73%;--d2:91.603%;offset-path:path('M97,92C26,77,15,114,75,141C143,162,122,105,114,101C109,97,110,96,97,92')"/>
<path class="leaves" d="M0,-1L-74,15C-71,34,-66,52,-57,70L1,52C2,43,2,35,2,26C-10,33,-18,42,-21,38C-26,34,-1,21,1,19C2,12,1,5,0,-1Z" style="--x:36px;--y:-35px;--s:.2;--d1:40.66%;--d2:85.019%;offset-path:path('M44,123C68,168,85,158,126,137C183,113,122,93,78,112C69,116,49,114,44,123')"/>
<path class="leaves" d="M0,0L66,19C64,39,57,68,51,82L1,66C1,47,2,19,0,0Z" style="--x:-33px;--y:-41px;--s:.3;--d1:62.718%;--d2:100%;offset-path:path('M110,151C172,127,107,72,65,103C71,124,74,157,110,151')"/>
<path class="leaves" d="M0,0L55,-17C56,-3,51,17,57,16C61,17,61,6,61,-6L110,12C93,50,76,84,64,86C37,62,16,32,0,0Z" style="--x:-55px;--y:-35px;--s:.3;--d1:50.853%;--d2:90.457%;offset-path:path('M151,113C92,85,51,86,45,132C82,160,121,154,138,135C144,128,149,122,151,114')"/></g>

<g style="opacity:{{oilbath=1}}" transform="translate(55 275) scale(1.2)">
<path fill="none" stroke="#989898" stroke-width="5" d="M215,23L215,78C215,90.1503,205.15,100,193,100L22,100C9.84974,100,0,90.1503,0,78L0,23" transform="translate(2.5,-23)"></path>
<path opacity="0.1" fill="#dbc177" d="M210,29L210,75C210,86.0457,201.046,95,190,95L20,95C8.95431,95,0,86.0457,0,75L0,29C0,29,210,29,210,29Z" transform="translate(5,-20)"></path></g>

<g style="opacity:{{icebath=0}}" transform="translate(55 275) scale(1.2)">
<path fill="none" stroke="#989898" stroke-width="5" d="M215,23L215,78C215,90.1503,205.15,100,193,100L22,100C9.84974,100,0,90.1503,0,78L0,23" transform="translate(2.5,-23)"></path>
<path opacity="0.1" fill="#a8d3e2" d="M210,29L210,75C210,86.0457,201.046,95,190,95L20,95C8.95431,95,0,86.0457,0,75L0,29C0,29,210,29,210,29Z" transform="translate(5,-20)"></path>
<g opacity="0.8" fill="#ffffff"><rect x="10" y="15" rx="5" ry="5" width="15" height="15"/><rect x="15" y="38" rx="5" ry="5" width="30" height="15"/><rect x="40" y="58" rx="5" ry="5" width="20" height="15"/><rect x="188" y="10" rx="5" ry="5" width="25" height="15"/><rect x="185" y="35" rx="5" ry="5" width="15" height="15"/><rect x="170" y="58" rx="5" ry="5" width="30" height="15"/></g></g>

<g style="opacity:{{filter=0}}" transform="translate(130 0) scale(0.8)">
<style>@keyframes f_01{0%{transform:translate(75px,180px)} 100%{transform:translate(75px,358px)}}</style>
<radialGradient id="Gradient-0--inject-3" cx="-0.639698" cy="6.85349" r="71.5" fx="-0.639698" fy="6.85349" gradientUnits="userSpaceOnUse"><stop offset="0" stop-color="#ffffff"></stop><stop offset="1" stop-color="#d1cfd1"></stop></radialGradient>
<path fill="{{filtersolvent=lightblue}}" opacity="0.5" d="M0,-9C0,-6,-2,-4,-5,-4C-8,-4,-10,-6,-10,-9C-10,-12,-8,-19,-5,-19C-2,-19,0,-12,0,-9Z" style="animation: 0.8s linear infinite both f_01;"></path>
<path d="M0,0C5,20,33,55,59,78L58,156L82,144L83,78C105,59,130,34,143,0Z" fill="#eeeeee" stroke-width="6" transform="translate(0,13.5)"></path>
<path fill="{{filtersolvent=lightblue}}" opacity="0.8" d="M27,35C38,51,41,53,64,77L63,153L78,146L78,77C100,54,103,56,118,35C80,41,60,41,27,35Z" stroke-width="6" transform="translate(0,13.5)"></path>
<ellipse rx="71.5" ry="13.5" fill="url(#Gradient-0--inject-3)" transform="translate(71.5,13.5)"></ellipse></g>

<g style="opacity:{{dropper=0}}" transform="translate(260 50) scale(0.4)">
<style>@keyframes a0_t { 0% { transform: translate(10px,245px); } 100% { transform: translate(-40px,600px); } }</style>
<rect rx="30" ry="100" width="130" height="50" fill="#cd853f" stroke="none" stroke-width="1px" transform="translate(202.64,52.7157) rotate(-45) translate(-65,-25)"/>
<rect rx="30" ry="100" width="240" height="50" fill="#d3d3d3" stroke="none" stroke-width="1px" transform="translate(91.5305,163.825) rotate(-45) translate(-120,-25)"/>
<rect fill="{{droppersolvent=lightblue}}" opacity="0.8" rx="30" ry="100" width="140" height="35" stroke="none" stroke-width="1px" transform="translate(52.8718,202.877) rotate(-45) translate(-70,-17.5)"/>
<rect  rx="50" ry="10" width="30" height="80" fill="#d2691e" stroke="none" stroke-width="1px" transform="translate(79,92) rotate(-45) translate(50,20)"/>
<path fill="{{droppersolvent=lightblue}}" opacity="0.5" d="M10,0C10,5,5,10,0,10C-5,10,-10,5,-10,0C-10,-5,-5,-19,0,-19C5,-19,10,-5,10,0Z" transform="translate(10,245)" style="animation: 1s linear infinite both a0_t;"/></g>

<g style="opacity:{{clip2=1}}" transform="translate(0 0) scale(1)">
<rect x="30" y="72" width="150" height="10" fill="#5e5e5e" stroke="none" stroke-width="1px"/>
<rect x="150" y="65" rx="15" ry="15" width="75" height="25" fill="#5e5e5e" stroke="none" stroke-width="1px"/></g>

<g style="opacity:{{clip2=1}}" transform="translate(0 0) scale(1)">
<rect x="30" y="192" width="150" height="10" fill="#5e5e5e" stroke="none" stroke-width="1px"/>
<rect x="150" y="185" rx="15" ry="15" width="75" height="25" fill="#5e5e5e" stroke="none" stroke-width="1px"/></g>

<g style="opacity:{{rb=1}}" transform="translate(110 150) scale(0.42)"><linearGradient id="grdCap" x1="0" y1="0.5" x2="1" y2="0.5" gradientUnits="objectBoundingBox"><stop offset="0" stop-color="#e5e5e5"/><stop offset="1" stop-color="#b1b1b1"/></linearGradient>
<rect x="85" y="0" rx="30" width="200" height="66" fill="url(#grdCap)"/></g>

<g style="opacity:{{rb2n=1}}"><linearGradient id="grdneck2-2" x1="0" y1="16.5" x2="93" y2="16.5" gradientUnits="userSpaceOnUse"><stop offset="0" stop-color="#e5e5e5"></stop><stop offset="1" stop-color="#b0afb0"></stop></linearGradient>
<rect rx="12" width="65" height="26" fill="url(#grdneck2-2)" transform="translate(240,170) rotate(30)"></rect></g>
</svg>
