<svg xmlns="http://www.w3.org/2000/svg" viewBox="0 0 370 475"><defs><radialGradient id="Gradient-0" cx="-20.4" cy="-21.9" r="109.3" fx="-20.4" fy="-21.9" gradientUnits="userSpaceOnUse"><stop offset="0" stop-color="#dedede"/><stop offset="1" stop-color="#2f2f2f"/></radialGradient></defs><rect width="1251.6" height="1080.9" fill="#cdcdcd" transform="translate(191.8,209) scale(.295616,.295616) translate(-648.7,-707.1)"/><ellipse rx="86" ry="86" fill="url(#Gradient-0)" transform="translate(45.6,138.4) scale(.295616,.295616)"/><ellipse rx="86" ry="86" fill="url(#Gradient-0)" transform="translate(111.9,141.3) scale(.295616,.295616)"/><ellipse rx="86" ry="86" fill="url(#Gradient-0)" transform="translate(61,73.8) scale(.295616,.295616)"/><ellipse rx="86" ry="86" fill="url(#Gradient-0)" transform="translate(213.6,115.9) scale(.295616,.295616)"/><ellipse rx="86" ry="86" fill="url(#Gradient-0)" transform="translate(162.7,180.1) scale(.295616,.295616)"/><ellipse rx="86" ry="86" fill="url(#Gradient-0)" transform="translate(78.5,284.7) scale(.295616,.295616)"/><ellipse rx="86" ry="86" fill="url(#Gradient-0)" transform="translate(45.6,205.5) scale(.295616,.295616)"/><ellipse rx="86" ry="86" fill="url(#Gradient-0)" transform="translate(330.5,48.4) scale(.295616,.295616)"/><ellipse rx="86" ry="86" fill="url(#Gradient-0)" transform="translate(249,180.1) scale(.295616,.295616)"/><ellipse rx="86" ry="86" fill="url(#Gradient-0)" transform="translate(249,48.4) scale(.295616,.295616)"/><ellipse rx="86" ry="86" fill="url(#Gradient-0)" transform="translate(104,212.1) scale(.295616,.295616)"/><ellipse rx="86" ry="86" fill="url(#Gradient-0)" transform="translate(135.2,87.6) scale(.295616,.295616)"/><ellipse rx="86" ry="86" fill="url(#Gradient-0)" transform="translate(172.8,10) scale(.295616,.295616)"/><ellipse rx="86" ry="86" fill="url(#Gradient-0)" transform="translate(351.5,210.6) scale(.295616,.295616)"/><ellipse rx="86" ry="86" fill="url(#Gradient-0)" transform="translate(109.8,35.4) scale(.295616,.295616)"/><ellipse rx="86" ry="86" fill="url(#Gradient-0)" transform="translate(308.1,124.7) scale(.295616,.295616)"/><ellipse rx="86" ry="86" fill="url(#Gradient-0)" transform="translate(162.7,269.8) scale(.295616,.295616)"/><ellipse rx="86" ry="86" fill="url(#Gradient-0)" transform="translate(10.1,48.4) scale(.295616,.295616)"/><rect width="347" height="120" fill="#fff" transform="translate(279.6,278.5) scale(.469269,.469269) translate(-173.5,-52.5)"/><path d="M0 0h306.3" stroke="#000" fill="none" stroke-width="26" transform="translate(279.6,269.8) scale(.469269,.469269) translate(-153.2,0)"/><ellipse rx="86" ry="86" fill="url(#Gradient-0)" transform="translate(20.2,269.8) scale(.295616,.295616)"/><ellipse rx="86" ry="86" fill="url(#Gradient-0)" transform="translate(186.1,212.1) scale(.295616,.295616)"/><text x="207.7" y="302.9" font-size="27.5" font-family="Arial" letter-spacing="0" word-spacing="0" font-weight="700" style="line-height: 16px;">Nanometer</text><text x="4.2" y="384" fill="red" font-size="40" font-family="Arial" font-weight="700">for Expert Analysis</text><text x="4.2" y="440" fill="red" font-size="40" font-family="Arial" font-weight="700" letter-spacing="0" word-spacing="0">Click Here...</text></svg>